.
 
http://www.scenetime.com    -   SceneTime [ We been having it ] !!!


How come you press harder on a remote control when you know the battery is dead? so you better seed to get speed ;)

        Seed back for speed


...................................NFO:.................................................http://leetleech.org/images/37641908562021283594.png 
http://leetleech.org/images/50540427091598697324.png 
http://leetleech.org/images/08816728047551043220.png 
http://leetleech.org/images/60910408122439880134.png 
http://leetleech.org/images/42751579106879338836.png 
http://leetleech.org/images/78660995700127197058.png
General
Complete name                    : C:\Users\coop\Desktop\The.Music.Never.Stopped.Dvd.Rip.Xvid.TCM\t.m.n.s.tcm.avi
Format                           : AVI
Format/Info                      : Audio Video Interleave
File size                        : 801 MiB
Duration                         : 1h 44mn
Overall bit rate                 : 1 069 Kbps
Movie name                       : t.m.n.s.tcm
Encoded by                       : Cooperman
Writing application              : VirtualDubMod 1.5.4.1 (build 2178/release) 
Copyright                        : TCM

Video
ID                               : 0
Format                           : MPEG-4 Visual
Format profile                   : Advanced Simple@L5
Format settings, BVOP            : 1
Format settings, QPel            : No
Format settings, GMC             : No warppoints
Format settings, Matrix          : Custom
Codec ID                         : XVID
Codec ID/Hint                    : XviD
Duration                         : 1h 44mn
Bit rate                         : 950 Kbps
Width                            : 640 pixels
Height                           : 272 pixels
Display aspect ratio             : 2.35:1
Frame rate                       : 25.000 fps
Color space                      : YUV
Chroma subsampling               : 4:2:0
Bit depth                        : 8 bits
Scan type                        : Progressive
Compression mode                 : Lossy
Bits/(Pixel*Frame)               : 0.218
Stream size                      : 712 MiB (89%)
Writing library                  : XviD 64

Audio
ID                               : 1
Format                           : MPEG Audio
Format version                   : Version 1
Format profile                   : Layer 3
Mode                             : Joint stereo
Mode extension                   : MS Stereo
Codec ID                         : 55
Codec ID/Hint                    : MP3
Duration                         : 1h 44mn
Bit rate mode                    : Constant
Bit rate                         : 112 Kbps
Channel(s)                       : 2 channels
Sampling rate                    : 44.1 KHz
Compression mode                 : Lossy
Stream size                      : 83.9 MiB (10%)
Alignment                        : Split accross interleaves
Interleave, duration             : 80 ms (2.00 video frames)
Interleave, preload duration     : 500 ms
Writing library                  : LAME3.98r
Encoding settings                : -m j -V 4 -q 2 -lowpass 15.6 -b 112
Language                         : English
Subs                             : No
Sample                           : Yes 
http://www.imdb.com/title/tt1613062/

source file : The.Music.Never.Stopped.2011.R1.NTSC.DVDR-CME
THANX CME! :)

57x14mb.rars[main.movie.avi]
sample[avi]
snaps.n.thumbs
sfv
nfo
Enjoy the movie!

t.c.m@hushmail.com
GREATINGS TO ALL THE P2P PLACES I LURK AT!
AND A FOOK YOU TO ALL RETAGERS!